<?xml version="1.0" standalone="no"?>
<!DOCTYPE svg PUBLIC "-//W3C//DTD SVG 20010904//EN"
 "http://www.w3.org/TR/2001/REC-SVG-20010904/DTD/svg10.dtd">
<svg version="1.0" xmlns="http://www.w3.org/2000/svg"
 width="640.000000pt" height="640.000000pt" viewBox="0 0 640.000000 640.000000"
 preserveAspectRatio="xMidYMid meet">
<metadata>
Created by potrace 1.14, written by Peter Selinger 2001-2017
</metadata>
<g transform="translate(0.000000,640.000000) scale(0.100000,-0.100000)"
fill="#000000" stroke="none">
<path d="M5155 6332 c-135 -56 -225 -176 -225 -298 l0 -46 44 5 c137 17 261
163 269 318 2 36 0 39 -23 38 -14 0 -43 -8 -65 -17z"/>
<path d="M5055 5939 c-60 -20 -118 -35 -127 -34 -9 2 -58 18 -109 35 -123 43
-204 40 -298 -10 -208 -111 -279 -371 -185 -680 74 -243 247 -460 367 -460 13
0 63 14 113 31 111 38 173 39 270 5 98 -35 132 -39 184 -25 88 25 227 205 285
370 13 36 13 37 -14 48 -44 19 -117 94 -147 152 -26 49 -28 64 -29 154 0 84 4
107 22 145 26 52 66 99 106 124 15 10 27 22 27 27 0 22 -75 89 -126 113 -110
52 -195 54 -339 5z"/>
<path d="M4040 5530 c-19 -19 -18 -40 3 -68 5 -7 18 -27 27 -45 10 -17 23 -31
30 -29 6 1 8 -2 5 -8 -10 -16 42 -90 63 -90 24 0 38 11 46 35 4 15 -10 49 -50
115 -70 119 -84 130 -124 90z"/>
<path d="M3720 5216 c-28 -35 -8 -58 98 -113 73 -39 110 -53 127 -49 26 7 36
25 28 54 -6 24 -117 87 -135 76 -6 -4 -8 -3 -5 3 7 11 -54 43 -82 43 -10 0
-24 -7 -31 -14z"/>
<path d="M4325 4920 c-11 -4 -24 -5 -28 -3 -4 3 -15 -1 -24 -9 -9 -7 -19 -13
-22 -12 -7 1 -48 -24 -74 -46 -10 -8 -32 -37 -50 -65 -32 -49 -32 -51 -32
-175 1 -125 19 -505 24 -505 1 0 4 -45 6 -100 8 -168 20 -398 30 -536 3 -55
32 -159 44 -159 4 0 14 -11 21 -25 7 -14 37 -41 67 -62 49 -34 59 -37 136 -39
70 -3 89 0 133 21 57 27 113 83 141 141 20 43 23 140 10 349 -4 61 -10 162
-13 225 -3 71 -10 118 -17 122 -9 6 -9 8 0 8 8 0 11 12 8 33 -2 17 -7 79 -10
137 -3 58 -7 139 -10 180 -20 317 -17 291 -30 335 -17 64 -82 135 -150 166
-52 23 -105 31 -105 16 0 -8 -3 -8 -8 -2 -9 13 -22 14 -47 5z"/>
<path d="M3322 4808 c-5 -7 -38 -102 -73 -210 l-63 -197 -35 5 c-20 3 -54 9
-76 14 -72 14 -222 17 -343 7 -193 -17 -421 -96 -589 -203 -29 -19 -53 -30
-53 -26 0 4 -13 21 -28 38 -15 18 -74 90 -132 162 -105 131 -129 149 -158 120
-7 -7 -12 -18 -12 -24 0 -7 41 -64 92 -126 51 -62 96 -117 100 -123 4 -5 24
-28 43 -50 39 -45 41 -51 21 -62 -42 -24 -128 -109 -196 -194 -123 -154 -215
-356 -245 -541 -13 -77 -13 -282 -1 -333 2 -11 5 -25 5 -31 1 -8 39 -4 119 12
64 13 203 39 307 59 105 20 271 51 370 70 99 19 191 36 205 39 14 3 50 9 80
15 30 6 70 13 89 16 19 3 37 7 40 9 3 2 26 7 51 10 25 3 56 8 70 11 22 4 59
11 110 20 8 2 49 10 90 19 41 8 89 17 105 20 38 7 60 11 225 42 74 14 146 27
160 30 14 2 59 11 100 19 41 8 86 16 100 19 162 29 267 50 276 55 15 9 -16
131 -60 232 -19 44 -60 118 -91 164 -58 88 -195 236 -255 276 -19 13 -37 26
-40 29 -26 29 -195 117 -290 151 -71 25 -85 36 -68 56 6 7 7 13 3 13 -4 0 -3
6 2 13 8 10 17 33 28 77 0 3 20 65 43 138 25 76 40 141 37 152 -7 23 -47 27
-63 8z"/>
<path d="M5081 4601 c-35 -35 -17 -56 93 -112 80 -41 109 -51 130 -45 23 6 27
11 24 38 -3 28 -12 36 -83 74 -44 23 -82 41 -84 39 -2 -2 -10 2 -18 10 -20 20
-39 19 -62 -4z"/>
<path d="M4816 4479 c-11 -17 -12 -27 -4 -45 6 -13 16 -24 21 -24 6 0 8 -3 4
-6 -8 -8 88 -151 105 -157 7 -2 23 1 36 6 29 13 29 51 -1 91 -13 17 -35 52
-50 78 -47 82 -81 99 -111 57z"/>
<path d="M4040 3380 c-19 -5 -48 -11 -65 -13 -16 -3 -129 -24 -250 -47 -121
-23 -231 -44 -245 -46 -14 -3 -59 -11 -100 -19 -41 -8 -86 -16 -100 -19 -14
-2 -97 -18 -185 -35 -88 -16 -171 -32 -185 -35 -24 -4 -82 -14 -125 -22 -131
-25 -314 -60 -415 -79 -69 -14 -141 -27 -160 -30 -19 -3 -42 -8 -50 -10 -8 -3
-31 -7 -50 -9 -19 -3 -46 -8 -60 -10 -13 -3 -42 -8 -64 -12 -22 -3 -43 -7 -46
-9 -3 -2 -23 -6 -45 -9 -22 -4 -71 -13 -110 -21 -38 -7 -91 -17 -118 -20 -26
-4 -49 -10 -51 -14 -2 -3 29 -184 70 -401 41 -217 76 -406 79 -420 2 -14 16
-86 30 -160 15 -74 33 -171 41 -215 8 -44 16 -91 19 -105 3 -14 9 -50 15 -80
6 -30 12 -66 15 -80 20 -104 27 -138 29 -155 2 -11 9 -49 16 -85 6 -36 14 -74
16 -86 4 -21 33 -87 58 -132 25 -44 68 -80 128 -107 54 -24 69 -27 132 -22 39
3 109 13 154 22 46 9 85 15 87 13 2 -2 6 -19 9 -38 3 -19 10 -60 16 -90 6 -30
13 -68 16 -85 4 -25 38 -201 49 -256 2 -9 6 -32 9 -50 9 -57 35 -149 51 -178
41 -80 142 -141 233 -142 76 0 109 8 157 36 53 31 78 59 110 124 30 60 35 127
16 221 -6 30 -13 69 -16 85 -3 17 -7 41 -10 55 -6 25 -51 263 -60 310 -3 14
-8 46 -13 72 l-9 46 91 17 c50 9 123 23 163 30 39 8 89 17 110 20 21 3 44 8
51 10 6 2 12 0 12 -6 0 -5 40 -49 89 -97 167 -165 496 -479 530 -507 110 -93
311 -2 406 185 23 45 29 144 10 179 -12 24 -208 223 -323 330 l-44 40 43 11
c140 38 239 155 241 285 1 42 -2 57 -57 350 -19 99 -37 196 -40 215 -3 19 -10
54 -16 78 -5 23 -12 59 -15 80 -3 20 -7 44 -9 52 -2 8 -7 31 -10 50 -3 19 -15
82 -27 140 -11 58 -22 116 -24 130 -2 14 -6 36 -9 50 -4 23 -16 82 -31 165 -3
17 -11 62 -19 100 -7 39 -16 86 -19 105 -3 19 -9 46 -12 60 -3 14 -6 34 -8 45
-18 116 -51 255 -60 254 -6 -1 -27 -5 -46 -9z"/>
<path d="M1230 2776 c-94 -26 -120 -56 -179 -202 -22 -54 -45 -112 -52 -129
-7 -16 -13 -34 -15 -40 -1 -5 -60 -152 -130 -325 -144 -357 -149 -381 -101
-463 39 -67 72 -96 146 -131 88 -40 165 -46 243 -16 75 28 105 65 152 188 21
53 44 111 51 127 7 17 25 62 40 100 14 39 31 79 36 90 4 11 40 101 79 200 39
99 77 194 84 210 44 98 48 151 17 221 -56 126 -234 207 -371 170z"/>
</g>
</svg>
